<?xml version="1.0" encoding="UTF-8"?>
<svg width="120px" height="109px" viewBox="0 0 120 109" version="1.1" xmlns="http://www.w3.org/2000/svg" xmlns:xlink="http://www.w3.org/1999/xlink">
    <!-- Generator: Sketch 47.1 (45422) - http://www.bohemiancoding.com/sketch -->
    <title>icon_sample</title>
    <desc>Created with Sketch.</desc>
    <defs></defs>
    <g id="Page-1" stroke="none" stroke-width="1" fill="none" fill-rule="evenodd">
        <g id="icon_sample" transform="translate(0.000000, -6.000000)">
            <rect id="Rectangle-2" x="0" y="0" width="120" height="120"></rect>
            <g id="Group" transform="translate(0.000000, 6.000000)" fill-rule="nonzero" fill="#000000">
                <path d="M80.71875,26.4043103 C80.71875,35.425 77.15625,43.9758621 70.78125,50.3655172 C70.5,50.6474138 70.5,51.1172414 70.78125,51.3051724 C70.875,51.3991379 71.0625,51.4931034 71.25,51.4931034 C71.4375,51.4931034 71.625,51.3991379 71.71875,51.3051724 C85.40625,37.5862069 85.40625,15.2224138 71.71875,1.40948276 C71.4375,1.12758621 70.96875,1.12758621 70.78125,1.40948276 C70.5,1.69137931 70.5,2.1612069 70.78125,2.34913793 C77.25,8.83275862 80.71875,17.3836207 80.71875,26.4043103 Z" id="Shape"></path>
                <path d="M70.6875,12.9672414 C70.78125,13.1551724 71.0625,13.3431034 71.25,13.3431034 C71.34375,13.3431034 71.4375,13.3431034 71.625,13.2491379 C72,13.0612069 72.09375,12.6853448 71.90625,12.3094828 C71.625,11.7456897 71.25,11.1818966 70.96875,10.712069 C70.78125,10.4301724 70.3125,10.3362069 70.03125,10.5241379 C69.75,10.712069 69.65625,11.1818966 69.84375,11.4637931 C70.03125,11.9336207 70.40625,12.4974138 70.6875,12.9672414 Z" id="Shape"></path>
                <path d="M71.34375,38.5258621 C71.0625,39.0896552 70.78125,39.5594828 70.5,40.1232759 C70.3125,40.4991379 70.40625,40.875 70.78125,41.062931 C70.875,41.1568966 70.96875,41.1568966 71.15625,41.1568966 C71.4375,41.1568966 71.625,41.062931 71.71875,40.7810345 C72,40.2172414 72.375,39.6534483 72.5625,39.0896552 C72.75,38.7137931 72.5625,38.337931 72.28125,38.15 C71.90625,38.0560345 71.53125,38.15 71.34375,38.5258621 Z" id="Shape"></path>
                <path d="M74.34375,21.1422414 C73.96875,21.2362069 73.6875,21.5181034 73.78125,21.8939655 C73.875,22.4577586 73.96875,23.1155172 73.96875,23.6793103 C73.96875,24.0551724 74.34375,24.337069 74.625,24.337069 C74.625,24.337069 74.625,24.337069 74.71875,24.337069 C75.09375,24.337069 75.375,23.9612069 75.375,23.5853448 C75.28125,22.9275862 75.1875,22.3637931 75.09375,21.7060345 C75.09375,21.3301724 74.71875,21.1422414 74.34375,21.1422414 Z" id="Shape"></path>
                <path d="M67.40625,8.36293103 C67.5,8.55086207 67.6875,8.64482759 67.96875,8.64482759 C68.15625,8.64482759 68.25,8.55086207 68.4375,8.45689655 C68.71875,8.175 68.71875,7.79913793 68.53125,7.51724138 C68.15625,7.04741379 67.6875,6.57758621 67.21875,6.10775862 C66.9375,5.82586207 66.46875,5.82586207 66.28125,6.10775862 C66,6.38965517 66,6.85948276 66.28125,7.04741379 C66.65625,7.51724138 67.03125,7.98706897 67.40625,8.36293103 Z" id="Shape"></path>
                <path d="M73.59375,15.9741379 C73.5,15.5982759 73.03125,15.4103448 72.65625,15.5982759 C72.28125,15.6922414 72.09375,16.162069 72.28125,16.537931 C72.46875,17.1017241 72.65625,17.6655172 72.84375,18.2293103 C72.9375,18.5112069 73.21875,18.6991379 73.5,18.6991379 C73.59375,18.6991379 73.59375,18.6991379 73.6875,18.6991379 C74.0625,18.6051724 74.25,18.2293103 74.15625,17.8534483 C74.0625,17.1956897 73.875,16.6318966 73.59375,15.9741379 Z" id="Shape"></path>
                <path d="M75.375,29.5051724 C75.46875,28.8474138 75.46875,28.2836207 75.5625,27.6258621 C75.5625,27.25 75.28125,26.9681034 74.90625,26.8741379 C74.53125,26.8741379 74.25,27.1560345 74.15625,27.5318966 C74.15625,28.0956897 74.0625,28.7534483 74.0625,29.3172414 C74.0625,29.6931034 74.25,30.0689655 74.71875,30.0689655 C74.71875,30.0689655 74.8125,30.0689655 74.8125,30.0689655 C75,30.162931 75.28125,29.8810345 75.375,29.5051724 Z" id="Shape"></path>
                <path d="M74.15625,32.7 C73.78125,32.6060345 73.40625,32.7939655 73.3125,33.1698276 C73.125,33.7336207 73.03125,34.2974138 72.84375,34.8612069 C72.75,35.237069 72.9375,35.612931 73.3125,35.7068966 C73.40625,35.7068966 73.5,35.7068966 73.5,35.7068966 C73.78125,35.7068966 74.0625,35.5189655 74.15625,35.237069 C74.34375,34.6732759 74.53125,34.0155172 74.71875,33.4517241 C74.71875,33.1698276 74.53125,32.7939655 74.15625,32.7 Z" id="Shape"></path>
                <path d="M68.34375,43.3181034 C67.96875,43.787931 67.59375,44.2577586 67.21875,44.7275862 C66.9375,45.0094828 67.03125,45.4793103 67.3125,45.6672414 C67.40625,45.7612069 67.59375,45.8551724 67.78125,45.8551724 C67.96875,45.8551724 68.15625,45.7612069 68.25,45.6672414 C68.625,45.1974138 69.09375,44.7275862 69.46875,44.2577586 C69.75,43.9758621 69.65625,43.5060345 69.375,43.3181034 C69,42.9422414 68.625,42.9422414 68.34375,43.3181034 Z" id="Shape"></path>
                <path d="M67.59375,26.4043103 C67.59375,31.9482759 65.4375,37.2103448 61.5,41.062931 C61.21875,41.3448276 61.21875,41.8146552 61.5,42.0025862 C61.59375,42.0965517 61.78125,42.1905172 61.96875,42.1905172 C62.15625,42.1905172 62.34375,42.0965517 62.4375,42.0025862 C66.5625,37.8681034 68.90625,32.2301724 68.90625,26.3103448 C68.90625,20.3905172 66.65625,14.8465517 62.4375,10.6181034 C62.15625,10.3362069 61.6875,10.3362069 61.5,10.6181034 C61.21875,10.9 61.21875,11.3698276 61.5,11.5577586 C65.4375,15.5982759 67.59375,20.8603448 67.59375,26.4043103 Z" id="Shape"></path>
                <path d="M56.90625,37.3982759 C57,37.4922414 57.1875,37.5862069 57.375,37.5862069 C57.5625,37.5862069 57.75,37.4922414 57.84375,37.3982759 C60.75,34.4853448 62.34375,30.5387931 62.34375,26.4043103 C62.34375,22.2698276 60.75,18.3232759 57.84375,15.4103448 C57.5625,15.1284483 57.09375,15.1284483 56.90625,15.4103448 C56.625,15.6922414 56.625,16.162069 56.90625,16.35 C59.53125,18.9810345 61.03125,22.5517241 61.03125,26.4043103 C61.03125,30.162931 59.53125,33.7336207 56.90625,36.4586207 C56.625,36.7405172 56.625,37.1163793 56.90625,37.3982759 Z" id="Shape"></path>
                <path d="M20.8125,51.4931034 C21,51.4931034 21.1875,51.3991379 21.28125,51.3051724 C21.5625,51.0232759 21.5625,50.5534483 21.28125,50.3655172 C14.90625,43.9758621 11.34375,35.425 11.34375,26.4043103 C11.34375,17.3836207 14.90625,8.83275862 21.28125,2.44310345 C21.5625,2.1612069 21.5625,1.69137931 21.28125,1.50344828 C21,1.22155172 20.53125,1.22155172 20.34375,1.50344828 C6.65625,15.2224138 6.65625,37.5862069 20.34375,51.3051724 C20.53125,51.4931034 20.625,51.4931034 20.8125,51.4931034 Z" id="Shape"></path>
                <path d="M19.40625,15.5982759 C19.03125,15.5043103 18.65625,15.5982759 18.46875,15.9741379 C18.28125,16.537931 18,17.1956897 17.8125,17.7594828 C17.71875,18.1353448 17.90625,18.5112069 18.28125,18.6051724 C18.375,18.6051724 18.375,18.6051724 18.46875,18.6051724 C18.75,18.6051724 19.03125,18.4172414 19.125,18.1353448 C19.3125,17.5715517 19.5,17.0077586 19.6875,16.4439655 C19.96875,16.162069 19.78125,15.7862069 19.40625,15.5982759 Z" id="Shape"></path>
                <path d="M16.78125,29.5051724 C16.78125,29.8810345 17.15625,30.162931 17.4375,30.162931 C17.4375,30.162931 17.53125,30.162931 17.53125,30.162931 C17.90625,30.162931 18.1875,29.787069 18.1875,29.4112069 C18.09375,28.8474138 18.09375,28.1896552 18.09375,27.6258621 C18.09375,27.25 17.71875,26.9681034 17.34375,26.9681034 C16.96875,26.9681034 16.6875,27.3439655 16.6875,27.7198276 C16.6875,28.2836207 16.6875,28.9413793 16.78125,29.5051724 Z" id="Shape"></path>
                <path d="M17.34375,24.337069 C17.4375,24.337069 17.4375,24.337069 17.34375,24.337069 C17.71875,24.337069 18.09375,24.0551724 18.09375,23.6793103 C18.1875,23.1155172 18.1875,22.4577586 18.28125,21.8939655 C18.375,21.5181034 18.09375,21.1422414 17.71875,21.1422414 C17.34375,21.0482759 16.96875,21.3301724 16.96875,21.7060345 C16.875,22.3637931 16.78125,22.9275862 16.6875,23.5853448 C16.6875,23.9612069 16.96875,24.337069 17.34375,24.337069 Z" id="Shape"></path>
                <path d="M18,35.3310345 C18.09375,35.612931 18.375,35.8008621 18.65625,35.8008621 C18.75,35.8008621 18.84375,35.8008621 18.84375,35.8008621 C19.21875,35.7068966 19.40625,35.3310345 19.3125,34.9551724 C19.125,34.3913793 18.9375,33.8275862 18.84375,33.2637931 C18.75,32.887931 18.375,32.7 18,32.7939655 C17.625,32.887931 17.4375,33.2637931 17.53125,33.6396552 C17.625,34.1094828 17.8125,34.7672414 18,35.3310345 Z" id="Shape"></path>
                <path d="M21.28125,10.712069 C20.90625,11.2758621 20.625,11.7456897 20.34375,12.3094828 C20.15625,12.6853448 20.25,13.0612069 20.625,13.2491379 C20.71875,13.3431034 20.8125,13.3431034 21,13.3431034 C21.28125,13.3431034 21.46875,13.2491379 21.5625,12.9672414 C21.84375,12.4034483 22.125,11.9336207 22.5,11.4637931 C22.6875,11.1818966 22.59375,10.712069 22.3125,10.5241379 C21.84375,10.3362069 21.46875,10.4301724 21.28125,10.712069 Z" id="Shape"></path>
                <path d="M20.4375,40.7810345 C20.53125,40.9689655 20.8125,41.1568966 21,41.1568966 C21.09375,41.1568966 21.28125,41.1568966 21.375,41.062931 C21.75,40.875 21.84375,40.4051724 21.65625,40.1232759 C21.375,39.5594828 21.09375,39.0896552 20.8125,38.5258621 C20.625,38.15 20.25,38.0560345 19.875,38.2439655 C19.5,38.4318966 19.40625,38.8077586 19.59375,39.1836207 C19.875,39.6534483 20.15625,40.2172414 20.4375,40.7810345 Z" id="Shape"></path>
                <path d="M24.1875,8.64482759 C24.375,8.64482759 24.5625,8.55086207 24.75,8.36293103 C25.125,7.89310345 25.59375,7.51724138 25.96875,7.04741379 C26.25,6.76551724 26.25,6.29568966 25.96875,6.10775862 C25.6875,5.82586207 25.21875,5.82586207 25.03125,6.10775862 C24.5625,6.57758621 24.1875,7.04741379 23.71875,7.51724138 C23.4375,7.79913793 23.53125,8.26896552 23.8125,8.45689655 C23.90625,8.55086207 24.09375,8.64482759 24.1875,8.64482759 Z" id="Shape"></path>
                <path d="M23.90625,45.5732759 C24,45.7612069 24.1875,45.7612069 24.375,45.7612069 C24.5625,45.7612069 24.75,45.6672414 24.84375,45.5732759 C25.125,45.2913793 25.125,44.9155172 24.9375,44.6336207 C24.5625,44.1637931 24.1875,43.6939655 23.8125,43.2241379 C23.53125,42.9422414 23.15625,42.8482759 22.875,43.1301724 C22.59375,43.412069 22.5,43.787931 22.78125,44.0698276 C23.0625,44.6336207 23.53125,45.1034483 23.90625,45.5732759 Z" id="Shape"></path>
                <path d="M30.09375,42.2844828 C30.28125,42.2844828 30.46875,42.1905172 30.5625,42.0965517 C30.84375,41.8146552 30.84375,41.3448276 30.5625,41.1568966 C26.625,37.2103448 24.46875,32.0422414 24.46875,26.4982759 C24.46875,20.9543103 26.625,15.6922414 30.5625,11.8396552 C30.84375,11.5577586 30.84375,11.087931 30.5625,10.9 C30.28125,10.6181034 29.8125,10.6181034 29.625,10.9 C25.5,15.0344828 23.15625,20.6724138 23.15625,26.5922414 C23.15625,32.512069 25.40625,38.0560345 29.625,42.2844828 C29.71875,42.1905172 29.90625,42.2844828 30.09375,42.2844828 Z" id="Shape"></path>
                <path d="M34.21875,37.3982759 C34.3125,37.4922414 34.5,37.5862069 34.6875,37.5862069 C34.875,37.5862069 35.0625,37.4922414 35.15625,37.3982759 C35.4375,37.1163793 35.4375,36.6465517 35.15625,36.4586207 C29.625,30.9146552 29.625,21.8939655 35.15625,16.35 C35.4375,16.0681034 35.4375,15.5982759 35.15625,15.4103448 C34.875,15.1284483 34.40625,15.1284483 34.21875,15.4103448 C28.21875,21.4241379 28.21875,31.3844828 34.21875,37.3982759 Z" id="Shape"></path>
                <path d="M94.875,55.6275862 C94.78125,55.6275862 94.78125,55.6275862 94.875,55.6275862 C94.78125,55.6275862 94.78125,55.6275862 94.78125,55.6275862 C86.90625,55.6275862 80.25,60.6077586 77.625,67.6551724 C77.625,67.6551724 77.625,67.6551724 77.625,67.7491379 C76.96875,69.6284483 76.5,71.6956897 76.5,73.8568966 C76.5,76.0181034 76.875,78.0853448 77.53125,80.0586207 C77.53125,80.0586207 77.53125,80.0586207 77.53125,80.1525862 C80.0625,87.2 86.71875,92.2741379 94.59375,92.3681034 C94.59375,92.3681034 94.59375,92.3681034 94.59375,92.3681034 C94.59375,92.3681034 94.6875,92.3681034 94.6875,92.3681034 C99.5625,92.3681034 104.0625,90.4887931 107.53125,87.1060345 C109.5,85.2267241 110.90625,82.8775862 111.84375,80.4344828 C111.84375,80.3405172 111.84375,80.3405172 111.9375,80.2465517 C112.59375,78.3672414 112.96875,76.3 113.0625,74.1387931 C113.0625,69.2525862 111.1875,64.6482759 107.8125,61.1715517 C104.25,57.6008621 99.75,55.7215517 94.875,55.6275862 Z M94.78125,57.037069 C94.78125,57.037069 94.78125,57.037069 94.78125,57.037069 C97.6875,57.037069 100.125,61.3594828 101.15625,67.3732759 L88.21875,67.2793103 C88.59375,65.212069 89.15625,63.3327586 89.90625,61.7353448 C91.3125,58.7284483 93.09375,57.037069 94.78125,57.037069 Z M101.4375,68.7827586 C101.625,70.4741379 101.8125,72.1655172 101.8125,74.0448276 C101.8125,75.8301724 101.625,77.6155172 101.4375,79.3068966 L88.125,79.212931 C87.9375,77.5215517 87.75,75.8301724 87.84375,73.9508621 C87.84375,72.1655172 88.03125,70.3801724 88.21875,68.6887931 L101.4375,68.7827586 Z M91.125,57.412931 C90.1875,58.3525862 89.4375,59.5741379 88.6875,61.1715517 C87.9375,62.9568966 87.28125,65.0241379 86.90625,67.2793103 L79.21875,67.1853448 C81.375,62.2991379 85.78125,58.6344828 91.125,57.412931 Z M77.8125,73.8568966 C77.8125,72.0715517 78.09375,70.2862069 78.65625,68.5948276 L86.625,68.6887931 C86.4375,70.3801724 86.25,72.0715517 86.25,73.9508621 C86.25,75.7362069 86.34375,77.5215517 86.53125,79.212931 L78.5625,79.1189655 C78.09375,77.4275862 77.8125,75.6422414 77.8125,73.8568966 Z M79.125,80.4344828 L86.8125,80.5284483 C87.1875,82.7836207 87.75,84.8508621 88.5,86.6362069 C89.15625,88.2336207 90,89.4551724 90.84375,90.3948276 C85.59375,89.1732759 81.1875,85.4146552 79.125,80.4344828 Z M94.59375,90.8646552 C94.59375,90.8646552 94.59375,90.8646552 94.59375,90.8646552 C92.8125,90.8646552 91.125,89.0793103 89.8125,86.0724138 C89.15625,84.475 88.59375,82.5956897 88.21875,80.5284483 L101.15625,80.6224138 C100.03125,86.6362069 97.5,90.8646552 94.59375,90.8646552 Z M106.59375,85.9784483 C104.25,88.2336207 101.4375,89.8310345 98.25,90.4887931 C100.21875,88.5155172 101.71875,85.0387931 102.46875,80.6224138 L110.15625,80.7163793 C109.40625,82.6896552 108.1875,84.475 106.59375,85.9784483 Z M111.5625,74.0448276 C111.5625,75.8301724 111.28125,77.6155172 110.71875,79.3068966 L102.75,79.212931 C102.9375,77.5215517 103.125,75.8301724 103.125,73.9508621 C103.125,72.1655172 103.03125,70.3801724 102.84375,68.6887931 L110.8125,68.7827586 C111.375,70.4741379 111.65625,72.2594828 111.5625,74.0448276 Z M102.65625,67.3732759 C101.90625,62.9568966 100.40625,59.4801724 98.53125,57.412931 C101.625,58.1646552 104.4375,59.6681034 106.78125,62.0172414 C108.375,63.6146552 109.5,65.4 110.34375,67.3732759 L102.65625,67.3732759 Z" id="Shape"></path>
                <path d="M118.875,42.8482759 C118.5,42.8482759 118.21875,43.1301724 118.21875,43.5060345 L118.21875,55.0637931 C118.21875,55.4396552 118.5,55.7215517 118.875,55.7215517 C119.25,55.7215517 119.53125,55.4396552 119.53125,55.0637931 L119.53125,43.5060345 C119.53125,43.1301724 119.25,42.8482759 118.875,42.8482759 Z" id="Shape"></path>
                <path d="M118.875,58.1646552 C118.5,58.1646552 118.21875,58.4465517 118.21875,58.8224138 L118.21875,62.5810345 C118.21875,62.9568966 118.5,63.2387931 118.875,63.2387931 C119.25,63.2387931 119.53125,62.9568966 119.53125,62.5810345 L119.53125,58.8224138 C119.53125,58.4465517 119.25,58.1646552 118.875,58.1646552 Z" id="Shape"></path>
                <path d="M4.40625,24.712931 C4.78125,24.712931 5.0625,24.4310345 5.0625,24.0551724 L5.0625,12.4034483 C5.0625,12.0275862 4.78125,11.7456897 4.40625,11.7456897 C4.03125,11.7456897 3.75,12.0275862 3.75,12.4034483 L3.75,23.9612069 C3.75,24.337069 4.03125,24.712931 4.40625,24.712931 Z" id="Shape"></path>
                <path d="M4.40625,32.2301724 C4.78125,32.2301724 5.0625,31.9482759 5.0625,31.5724138 L5.0625,27.8137931 C5.0625,27.437931 4.78125,27.1560345 4.40625,27.1560345 C4.03125,27.1560345 3.75,27.437931 3.75,27.8137931 L3.75,31.5724138 C3.75,31.9482759 4.03125,32.2301724 4.40625,32.2301724 Z" id="Shape"></path>
                <path d="M49.6875,3.57068966 C49.78125,3.66465517 49.96875,3.75862069 50.15625,3.75862069 C50.34375,3.75862069 50.53125,3.66465517 50.625,3.57068966 C50.90625,3.2887931 50.90625,2.81896552 50.625,2.63103448 L49.03125,1.03362069 C48.75,0.751724138 48.28125,0.751724138 48.09375,1.03362069 C47.8125,1.31551724 47.8125,1.78534483 48.09375,1.97327586 L49.6875,3.57068966 Z" id="Shape"></path>
                <path d="M54.75,8.64482759 C54.84375,8.7387931 55.03125,8.83275862 55.21875,8.83275862 C55.40625,8.83275862 55.59375,8.7387931 55.6875,8.64482759 C55.96875,8.36293103 55.96875,7.89310345 55.6875,7.70517241 L54.09375,6.10775862 C53.8125,5.82586207 53.34375,5.82586207 53.15625,6.10775862 C52.875,6.38965517 52.875,6.85948276 53.15625,7.04741379 L54.75,8.64482759 Z" id="Shape"></path>
                <path d="M48.65625,8.83275862 C48.84375,8.83275862 49.03125,8.7387931 49.125,8.64482759 L50.71875,7.04741379 C51,6.76551724 51,6.29568966 50.71875,6.10775862 C50.4375,5.82586207 49.96875,5.82586207 49.78125,6.10775862 L48.1875,7.70517241 C47.90625,7.98706897 47.90625,8.45689655 48.1875,8.64482759 C48.28125,8.7387931 48.46875,8.83275862 48.65625,8.83275862 Z" id="Shape"></path>
                <path d="M53.71875,3.75862069 C53.90625,3.75862069 54.09375,3.66465517 54.1875,3.57068966 L55.78125,1.97327586 C56.0625,1.69137931 56.0625,1.22155172 55.78125,1.03362069 C55.5,0.751724138 55.03125,0.751724138 54.84375,1.03362069 L53.25,2.63103448 C52.96875,2.91293103 52.96875,3.38275862 53.25,3.57068966 C53.34375,3.66465517 53.53125,3.75862069 53.71875,3.75862069 Z" id="Shape"></path>
                <path d="M102.9375,100.355172 C102.65625,100.073276 102.1875,100.073276 102,100.355172 C101.71875,100.637069 101.71875,101.106897 102,101.294828 L103.59375,102.892241 C103.6875,102.986207 103.875,103.080172 104.0625,103.080172 C104.25,103.080172 104.4375,102.986207 104.53125,102.892241 C104.8125,102.610345 104.8125,102.140517 104.53125,101.952586 L102.9375,100.355172 Z" id="Shape"></path>
                <path d="M108,105.42931 C107.71875,105.147414 107.25,105.147414 107.0625,105.42931 C106.78125,105.711207 106.78125,106.181034 107.0625,106.368966 L108.65625,107.966379 C108.75,108.060345 108.9375,108.15431 109.125,108.15431 C109.3125,108.15431 109.5,108.060345 109.59375,107.966379 C109.875,107.684483 109.875,107.214655 109.59375,107.026724 L108,105.42931 Z" id="Shape"></path>
                <path d="M103.5,105.42931 L101.90625,107.026724 C101.625,107.308621 101.625,107.778448 101.90625,107.966379 C102,108.060345 102.1875,108.15431 102.375,108.15431 C102.5625,108.15431 102.75,108.060345 102.84375,107.966379 L104.4375,106.368966 C104.71875,106.087069 104.71875,105.617241 104.4375,105.42931 C104.15625,105.241379 103.78125,105.147414 103.5,105.42931 Z" id="Shape"></path>
                <path d="M108.5625,100.355172 L106.96875,101.952586 C106.6875,102.234483 106.6875,102.70431 106.96875,102.892241 C107.0625,102.986207 107.25,103.080172 107.4375,103.080172 C107.625,103.080172 107.8125,102.986207 107.90625,102.892241 L109.5,101.294828 C109.78125,101.012931 109.78125,100.543103 109.5,100.355172 C109.3125,100.073276 108.84375,100.073276 108.5625,100.355172 Z" id="Shape"></path>
                <path d="M3.09375,90.112931 C2.8125,89.8310345 2.34375,89.8310345 2.15625,90.112931 C1.875,90.3948276 1.875,90.8646552 2.15625,91.0525862 L3.75,92.65 C3.84375,92.7439655 4.03125,92.837931 4.21875,92.837931 C4.40625,92.837931 4.59375,92.7439655 4.6875,92.65 C4.96875,92.3681034 4.96875,91.8982759 4.6875,91.7103448 L3.09375,90.112931 Z" id="Shape"></path>
                <path d="M8.15625,95.187069 C7.875,94.9051724 7.40625,94.9051724 7.21875,95.187069 C6.9375,95.4689655 6.9375,95.9387931 7.21875,96.1267241 L8.8125,97.7241379 C8.90625,97.8181034 9.09375,97.912069 9.28125,97.912069 C9.46875,97.912069 9.65625,97.8181034 9.75,97.7241379 C10.03125,97.4422414 10.03125,96.9724138 9.75,96.7844828 L8.15625,95.187069 Z" id="Shape"></path>
                <path d="M3.75,95.187069 L2.15625,96.7844828 C1.875,97.0663793 1.875,97.5362069 2.15625,97.7241379 C2.25,97.8181034 2.4375,97.912069 2.625,97.912069 C2.8125,97.912069 3,97.8181034 3.09375,97.7241379 L4.6875,96.1267241 C4.96875,95.8448276 4.96875,95.375 4.6875,95.187069 C4.40625,94.9051724 3.9375,94.9051724 3.75,95.187069 Z" id="Shape"></path>
                <path d="M8.8125,90.112931 L7.21875,91.7103448 C6.9375,91.9922414 6.9375,92.462069 7.21875,92.65 C7.3125,92.7439655 7.5,92.837931 7.6875,92.837931 C7.875,92.837931 8.0625,92.7439655 8.15625,92.65 L9.75,91.0525862 C10.03125,90.7706897 10.03125,90.3008621 9.75,90.112931 C9.46875,89.8310345 9,89.8310345 8.8125,90.112931 Z" id="Shape"></path>
                <path d="M94.6875,42.5663793 C96.65625,42.5663793 98.34375,40.9689655 98.34375,38.9017241 C98.34375,36.9284483 96.75,35.237069 94.6875,35.237069 C92.625,35.237069 91.03125,36.8344828 91.03125,38.9017241 C91.03125,40.875 92.71875,42.5663793 94.6875,42.5663793 Z M94.6875,36.6465517 C95.90625,36.6465517 96.9375,37.6801724 96.9375,38.9017241 C96.9375,40.1232759 95.90625,41.1568966 94.6875,41.1568966 C93.46875,41.1568966 92.4375,40.1232759 92.4375,38.9017241 C92.4375,37.5862069 93.46875,36.6465517 94.6875,36.6465517 Z" id="Shape"></path>
                <path d="M94.21875,14.2827586 L108,14.2827586 C108.375,14.2827586 108.65625,14.0008621 108.65625,13.625 C108.65625,13.2491379 108.375,12.9672414 108,12.9672414 L94.21875,12.9672414 C93.84375,12.9672414 93.5625,13.2491379 93.5625,13.625 C93.5625,14.0008621 93.84375,14.2827586 94.21875,14.2827586 Z" id="Shape"></path>
                <path d="M116.90625,12.8732759 L112.5,12.8732759 C112.125,12.8732759 111.84375,13.1551724 111.84375,13.5310345 C111.84375,13.9068966 112.125,14.1887931 112.5,14.1887931 L116.90625,14.1887931 C117.28125,14.1887931 117.5625,13.9068966 117.5625,13.5310345 C117.65625,13.2491379 117.375,12.8732759 116.90625,12.8732759 Z" id="Shape"></path>
                <path d="M116.90625,8.175 L107.34375,8.175 C106.96875,8.175 106.6875,8.45689655 106.6875,8.83275862 C106.6875,9.20862069 106.96875,9.49051724 107.34375,9.49051724 L116.90625,9.49051724 C117.28125,9.49051724 117.5625,9.20862069 117.5625,8.83275862 C117.65625,8.45689655 117.375,8.175 116.90625,8.175 Z" id="Shape"></path>
                <path d="M100.125,9.58448276 L103.21875,9.58448276 C103.59375,9.58448276 103.875,9.30258621 103.875,8.92672414 C103.875,8.55086207 103.59375,8.26896552 103.21875,8.26896552 L100.125,8.26896552 C99.75,8.26896552 99.46875,8.55086207 99.46875,8.92672414 C99.46875,9.30258621 99.75,9.58448276 100.125,9.58448276 Z" id="Shape"></path>
                <path d="M10.125,67.8431034 L23.90625,67.8431034 C24.28125,67.8431034 24.5625,67.5612069 24.5625,67.1853448 C24.5625,66.8094828 24.28125,66.5275862 23.90625,66.5275862 L10.125,66.5275862 C9.75,66.5275862 9.46875,66.8094828 9.46875,67.1853448 C9.46875,67.4672414 9.75,67.8431034 10.125,67.8431034 Z" id="Shape"></path>
                <path d="M1.125,67.8431034 L5.625,67.8431034 C6,67.8431034 6.28125,67.5612069 6.28125,67.1853448 C6.28125,66.8094828 6,66.5275862 5.625,66.5275862 L1.125,66.5275862 C0.75,66.5275862 0.46875,66.8094828 0.46875,67.1853448 C0.46875,67.4672414 0.75,67.8431034 1.125,67.8431034 Z" id="Shape"></path>
                <path d="M10.78125,71.1318966 L1.125,71.1318966 C0.75,71.1318966 0.46875,71.4137931 0.46875,71.7896552 C0.46875,72.1655172 0.75,72.4474138 1.125,72.4474138 L10.6875,72.4474138 C11.0625,72.4474138 11.34375,72.1655172 11.34375,71.7896552 C11.4375,71.5077586 11.15625,71.1318966 10.78125,71.1318966 Z" id="Shape"></path>
                <path d="M17.90625,71.1318966 L14.8125,71.1318966 C14.4375,71.1318966 14.15625,71.4137931 14.15625,71.7896552 C14.15625,72.1655172 14.4375,72.4474138 14.8125,72.4474138 L17.90625,72.4474138 C18.28125,72.4474138 18.5625,72.1655172 18.5625,71.7896552 C18.65625,71.5077586 18.375,71.1318966 17.90625,71.1318966 Z" id="Shape"></path>
                <path d="M69.28125,97.7241379 L65.4375,97.7241379 L64.5,94.2474138 L61.59375,82.9715517 C61.59375,82.9715517 61.59375,82.9715517 61.59375,82.9715517 L61.59375,82.9715517 L61.3125,81.8439655 L61.3125,81.8439655 L58.875,72.6353448 L58.875,72.6353448 L58.59375,71.6956897 L58.59375,71.6956897 L56.4375,63.4267241 L56.4375,63.4267241 L55.6875,60.4198276 C55.6875,60.4198276 55.6875,60.4198276 55.6875,60.4198276 L54.09375,54.2181034 L52.78125,49.1439655 C52.78125,49.1439655 52.78125,49.1439655 52.78125,49.1439655 L51.65625,45.0094828 C51.65625,45.0094828 51.65625,45.0094828 51.65625,45.0094828 L48.09375,31.2905172 C49.875,30.5387931 51.1875,28.6594828 51.1875,26.5922414 C51.1875,23.7732759 48.9375,21.5181034 46.125,21.5181034 C43.3125,21.5181034 41.0625,23.7732759 41.0625,26.5922414 C41.0625,28.6594828 42.375,30.5387931 44.15625,31.2905172 L40.59375,45.0094828 C40.59375,45.0094828 40.59375,45.0094828 40.59375,45.0094828 L39.375,49.05 L39.375,49.05 L38.0625,54.1241379 C38.0625,54.1241379 38.0625,54.1241379 38.0625,54.1241379 L36.46875,60.4198276 L35.625,63.3327586 L33.46875,71.6017241 L33.46875,71.6017241 L33.1875,72.5413793 L33.1875,72.5413793 L30.75,81.75 L30.75,81.75 L30.46875,82.8775862 C30.46875,82.8775862 30.46875,82.8775862 30.46875,82.8775862 C30.46875,82.8775862 30.46875,82.8775862 30.46875,82.8775862 L27.5625,94.1534483 L26.625,97.5362069 L22.875,97.5362069 C21,97.5362069 19.40625,99.0396552 19.40625,101.012931 L19.40625,103.174138 C19.40625,103.55 19.6875,103.831897 20.0625,103.831897 L71.90625,103.831897 C72.28125,103.831897 72.5625,103.55 72.5625,103.174138 L72.5625,101.012931 C72.75,99.3215517 71.15625,97.7241379 69.28125,97.7241379 Z M62.90625,93.3077586 L48,87.5758621 L51.84375,86.0724138 L59.34375,83.1594828 L60.375,83.5353448 L62.90625,93.3077586 Z M46.125,86.9181034 L42.75,85.6025862 L34.78125,82.5956897 L46.125,78.2732759 L56.34375,82.2198276 L57.46875,82.6896552 L55.125,83.5353448 L46.125,86.9181034 Z M59.8125,81.6560345 L59.34375,81.8439655 L48,77.5215517 L54.65625,74.9844828 L57.75,73.762931 L59.8125,81.6560345 Z M57,70.7560345 L48,67.2793103 L55.3125,64.4603448 L57,70.7560345 Z M52.96875,55.2517241 L54.09375,59.4801724 L48.09375,57.1310345 L52.96875,55.2517241 Z M51.09375,48.1103448 L49.21875,47.3586207 L48,46.8887931 L49.3125,46.4189655 L50.53125,45.9491379 L51.09375,48.1103448 Z M42.375,26.4043103 C42.375,24.337069 44.0625,22.6456897 46.125,22.6456897 C48.1875,22.6456897 49.875,24.337069 49.875,26.4043103 C49.875,28.4715517 48.1875,30.162931 46.125,30.162931 C44.0625,30.162931 42.375,28.4715517 42.375,26.4043103 Z M45.375,31.5724138 C45.84375,31.5724138 46.3125,31.5724138 46.78125,31.5724138 L50.15625,44.6336207 L48.65625,45.1974138 L46.125,46.2310345 L44.25,45.4793103 L42,44.6336207 L45.375,31.5724138 Z M41.625,45.9491379 L43.5,46.7008621 L44.15625,46.9827586 L41.0625,48.2043103 L41.625,45.9491379 Z M40.59375,49.7077586 L46.03125,47.6405172 L51.46875,49.7077586 L52.5,53.8422414 L46.125,56.3793103 L42.65625,55.0637931 L39.5625,53.8422414 L40.59375,49.7077586 Z M39.1875,55.1577586 L44.15625,57.037069 L38.15625,59.3862069 L39.1875,55.1577586 Z M37.6875,61.0775862 L46.125,57.8827586 L54.46875,61.0775862 L55.03125,63.1448276 L46.125,66.5275862 L40.03125,64.1784483 L37.21875,63.0508621 L37.6875,61.0775862 Z M36.84375,64.4603448 L41.8125,66.3396552 L44.25,67.2793103 L35.25,70.7560345 L36.84375,64.4603448 Z M45.5625,68.2189655 L46.03125,68.0310345 L57.375,72.3534483 L57.375,72.3534483 L52.21875,74.3267241 L46.03125,76.6758621 L34.6875,72.3534483 L45.5625,68.2189655 Z M34.40625,73.762931 L37.03125,74.7965517 L44.15625,77.5215517 L32.8125,81.8439655 L32.34375,81.6560345 L34.40625,73.762931 Z M31.78125,83.7232759 L32.8125,83.3474138 L44.15625,87.6698276 L29.25,93.4017241 L31.78125,83.7232759 Z M28.875,94.9991379 L46.125,88.4215517 L63.375,94.9991379 L64.125,97.7241379 L28.125,97.7241379 L28.875,94.9991379 Z M71.34375,102.610345 L20.8125,102.610345 L20.8125,101.200862 C20.8125,100.073276 21.75,99.1336207 22.875,99.1336207 L69.28125,99.1336207 C70.40625,99.1336207 71.34375,100.073276 71.34375,101.200862 L71.34375,102.610345 L71.34375,102.610345 Z" id="Shape"></path>
            </g>
        </g>
    </g>
</svg>