<svg xmlns="http://www.w3.org/2000/svg" xmlns:xlink="http://www.w3.org/1999/xlink" width="32px" height="45px" viewBox="0 0 32 45" version="1.1">
    <!-- Generator: Sketch 48.2 (47327) - http://www.bohemiancoding.com/sketch -->
    <title>small_robot_logo_color</title>
    <desc>Created with Sketch.</desc>
    <defs/>
    <g id="Page-1" stroke="none" stroke-width="1" fill="none" fill-rule="evenodd">
        <g id="small_robot_logo_color" fill="#003A41" fill-rule="nonzero">
            <g id="small_robot_logo-copy">
                <g id="Group">
                    <polygon id="Shape" points="16.2672941 41.3404687 14.0569412 41.3404687 14.0569412 43.505625 12.4258824 43.505625 12.4258824 44.7820312 16.2672941 44.7820312"/>
                    <polygon id="Shape" points="22.2983529 41.3404687 20.088 41.3404687 20.088 43.505625 18.4569412 43.505625 18.4569412 44.7820312 22.2983529 44.7820312"/>
                    <path d="M19.1957647,40.6804687 L22.7101176,40.6804687 C22.8767059,40.6804687 23.0362353,40.6551562 23.1910588,40.6171875 C24.0842353,40.4001562 24.7515294,39.6023437 24.7515294,38.6465625 L24.7515294,32.955 C24.7515294,32.885625 24.7378824,32.82 24.7308235,32.7525 L23.8385882,32.7525 L19.7501176,32.7525 L18.8578824,32.7525 C18.8696471,32.8185937 18.8785882,32.885625 18.8785882,32.955 L18.8785882,38.6470312 C18.8785882,39.2784375 18.3628235,39.7921875 17.7294118,39.7921875 L16.9962353,39.7921875 L12.0145882,39.7921875 C11.3807059,39.7921875 10.8654118,39.2784375 10.8654118,38.6470312 L10.8654118,37.734375 L14.4047059,37.734375 L17.7190588,33.718125 L17.1124706,33.22125 L16.5397647,32.7525 L16.4828235,32.7525 L15.6230588,33.7945312 L13.6630588,36.1701562 L9.44988235,36.1701562 L7.41741176,36.1701562 L7.41741176,36.9520312 L7.41741176,37.734375 L9.97270588,37.734375 L9.97270588,38.6470312 C9.97270588,39.7682812 10.8884706,40.6804687 12.0145882,40.6804687 L13.1642353,40.6804687 L16.9957647,40.6804687 L17.16,40.6804687 L17.7289412,40.6804687 L19.1957647,40.6804687 Z" id="Shape"/>
                    <path d="M6.72611765,38.199375 L6.72611765,35.705625 C6.72611765,34.2660937 5.55011765,33.0946875 4.10494118,33.0946875 L0.336,33.0946875 L0.336,34.6589063 L4.10447059,34.6589063 C4.68376471,34.6589063 5.15576471,35.1285938 5.15576471,35.705625 L5.15576471,38.199375 C5.15576471,38.7764063 4.68376471,39.2460938 4.10447059,39.2460938 L0.336,39.2460938 L0.336,40.8103125 L4.10494118,40.8103125 C5.55011765,40.8103125 6.72611765,39.6389062 6.72611765,38.199375 Z" id="Shape"/>
                    <path d="M6.72188235,31.3659375 L7.23247059,31.3659375 L16.5741176,31.3659375 L18.1501176,31.3659375 L28.0028235,31.3659375 C29.1821176,31.3659375 30.2301176,30.8053125 30.8997647,29.94 C31.3769412,29.3240625 31.664,28.5548438 31.664,27.7185938 L31.664,16.335 C31.664,14.3235938 30.0216471,12.6876563 28.0028235,12.6876563 L18.1501176,12.6876563 L18.0682353,12.6876563 L18.0682353,9.935625 L21.7632941,7.81078125 L21.7632941,2.74921875 L17.3623529,0.21796875 L12.9609412,2.74875 L12.9609412,7.81078125 L16.6564706,9.935625 L16.6564706,12.6876563 L16.5741176,12.6876563 L6.72188235,12.6876563 C4.70305882,12.6876563 3.06070588,14.3240625 3.06070588,16.335 L3.06070588,27.7185938 C3.06023529,29.73 4.70305882,31.3659375 6.72188235,31.3659375 Z M14.3727059,6.9984375 L14.3727059,3.560625 L17.3623529,1.84125 L20.3515294,3.56015625 L20.3515294,6.99796875 L17.3623529,8.716875 L14.3727059,6.9984375 Z M4.00141176,16.335 C4.00141176,14.840625 5.22164706,13.6251562 6.72141176,13.6251562 L16.5741176,13.6251562 L18.1501176,13.6251562 C19.6503529,13.6251562 20.8705882,14.840625 20.8705882,16.335 L20.8705882,27.7185937 C20.8705882,29.2129687 19.6498824,30.4284375 18.1501176,30.4284375 L16.5741176,30.4284375 L6.72188235,30.4284375 C5.22164706,30.4284375 4.00188235,29.2129687 4.00188235,27.7185938 L4.00188235,16.335 L4.00141176,16.335 Z" id="Shape"/>
                    <path d="M18.176,24.5446875 L6.29882353,24.5446875 C5.52094118,24.5446875 4.88752941,25.1751562 4.88752941,25.9504687 C4.88752941,26.7257813 5.52094118,27.35625 6.29882353,27.35625 L18.1755294,27.35625 C18.9538824,27.35625 19.5872941,26.7257813 19.5872941,25.9504687 C19.5872941,25.1751562 18.9543529,24.5446875 18.176,24.5446875 Z M18.176,26.4679687 L6.29882353,26.4679687 C6.01270588,26.4679687 5.77976471,26.2359375 5.77976471,25.9504687 C5.77976471,25.665 6.01223529,25.4329688 6.29882353,25.4329688 L18.1755294,25.4329688 C18.4616471,25.4329688 18.6950588,25.665 18.6950588,25.9504687 C18.6950588,26.2359375 18.4621176,26.4679687 18.176,26.4679687 Z" id="Shape"/>
                    <path d="M7.90917647,23.29125 C9.83905882,23.29125 11.4089412,21.7275 11.4089412,19.8051562 C11.4089412,17.8832812 9.83905882,16.3195313 7.90917647,16.3195313 C5.97929412,16.3195313 4.40988235,17.8832812 4.40988235,19.8051562 C4.41035294,21.7275 5.97976471,23.29125 7.90917647,23.29125 Z M10.9628235,19.8051562 C10.9628235,21.481875 9.59294118,22.8464062 7.90964706,22.8464062 L7.90964706,16.7639062 C9.59341176,16.764375 10.9628235,18.1284375 10.9628235,19.8051562 Z" id="Shape"/>
                    <path d="M16.5656471,23.29125 C18.4955294,23.29125 20.0649412,21.7275 20.0649412,19.8051562 C20.0649412,17.8832812 18.4955294,16.3195313 16.5656471,16.3195313 C14.6357647,16.3195313 13.0663529,17.8832812 13.0663529,19.8051562 C13.0663529,21.7275 14.6357647,23.29125 16.5656471,23.29125 Z M19.6188235,19.8051562 C19.6188235,21.481875 18.2489412,22.8464062 16.5656471,22.8464062 L16.5656471,16.7639062 C18.2489412,16.764375 19.6188235,18.1284375 19.6188235,19.8051562 Z" id="Shape"/>
                    <path d="M10.8856471,32.7529688 L9.99341176,32.7529688 C9.98635294,32.8204688 9.97270588,32.8860938 9.97270588,32.9554688 L9.97270588,35.5584375 L10.8649412,35.5584375 L10.8649412,32.9554688 C10.8649412,32.8860938 10.8738824,32.8185937 10.8856471,32.7529688 Z" id="Shape"/>
                </g>
            </g>
        </g>
    </g>
</svg>